<svg xmlns="http://www.w3.org/2000/svg" width="340.166" height="191.049" viewBox="0 0 340.166 191.049">
  <path id="Tracé_87" data-name="Tracé 87" d="M216,335.412a53.489,53.489,0,0,0-27.428,7.527,53.725,53.725,0,0,0-73.225-46.3A62.8,62.8,0,0,0-7.62,314.649c0,.887.032,1.768.067,2.645l-.067,0a62.8,62.8,0,0,0-62.8,62.8,62.8,62.8,0,0,0,62.8,62.8,63.461,63.461,0,0,0,6.415-.324h211.35A54.3,54.3,0,0,0,216,442.9a53.742,53.742,0,0,0,0-107.484Z" transform="translate(70.422 -251.847)" fill="#fff"/>
</svg>