<svg xmlns="http://www.w3.org/2000/svg" width="331.539" height="148.498" viewBox="0 0 331.539 148.498">
    <path id="Tracé_86" data-name="Tracé 86" d="M823.655,271.746a41.533,41.533,0,0,0-21.3,5.847,41.609,41.609,0,0,0-55.236-36.521,48.8,48.8,0,0,0-46.6-34.341c-1.646,0-3.267.106-4.872.265A48.773,48.773,0,0,0,652.2,240.984a41.614,41.614,0,0,0-55.3,36.5,41.742,41.742,0,1,0-21.3,77.638,42.355,42.355,0,0,0,4.549-.252h64.111a48.968,48.968,0,0,0,5.7.36q2.522,0,4.98-.25h91.538c.935.053,1.86.141,2.808.141s1.873-.088,2.805-.141h67.009a42.353,42.353,0,0,0,4.549.25,41.741,41.741,0,1,0,0-83.483Z" transform="translate(-533.858 -206.731)" fill="#fff" />
</svg>