<svg xmlns="http://www.w3.org/2000/svg" width="985.261" height="172.028" viewBox="0 0 985.261 172.028">
    <path id="Tracé_26" data-name="Tracé 26" d="M83.349,296.71a28.716,28.716,0,0,0-14.725,4.041,28.843,28.843,0,0,0-39.312-24.856,33.725,33.725,0,0,0-32.3-24.048,33.716,33.716,0,0,0-33.716,33.716c0,.476.017.949.036,1.42h-.036A33.716,33.716,0,0,0-70.422,320.7a33.716,33.716,0,0,0,33.716,33.716,34.078,34.078,0,0,0,3.444-.174H80.2a29.161,29.161,0,0,0,3.145.174,28.852,28.852,0,0,0,0-57.7Z" transform="translate(873.06 -226.847)" fill="#fff"/>
    <path id="Tracé_27" data-name="Tracé 27" d="M14.413,436.3a13.094,13.094,0,0,1,6.714,1.842A13.15,13.15,0,0,1,39.05,426.814a15.372,15.372,0,0,1,30.1,4.408c0,.217-.008.432-.017.647h.017a15.372,15.372,0,0,1,0,30.743,15.642,15.642,0,0,1-1.57-.079H15.847a13.3,13.3,0,0,1-1.434.079,13.154,13.154,0,0,1,0-26.308Z" transform="translate(-1.259 -353.85)" fill="#fff"/>
    <path id="Tracé_28" data-name="Tracé 28" d="M48.567,286.562a22.221,22.221,0,0,0-11.394,3.127,22.319,22.319,0,0,0-30.42-19.234,26.1,26.1,0,0,0-25-18.608,26.09,26.09,0,0,0-26.09,26.09c0,.368.013.734.028,1.1h-.028a26.09,26.09,0,0,0-26.09,26.09,26.09,26.09,0,0,0,26.09,26.09,26.365,26.365,0,0,0,2.665-.135h87.8a22.564,22.564,0,0,0,2.434.135,22.326,22.326,0,0,0,0-44.652Z" transform="translate(124.368 -215.647)" fill="#fff"/>
    <path id="Tracé_29" data-name="Tracé 29" d="M83.349,296.71a28.716,28.716,0,0,0-14.725,4.041,28.843,28.843,0,0,0-39.312-24.856,33.725,33.725,0,0,0-32.3-24.048,33.716,33.716,0,0,0-33.716,33.716c0,.476.017.949.036,1.42h-.036A33.716,33.716,0,0,0-70.422,320.7a33.716,33.716,0,0,0,33.716,33.716,34.078,34.078,0,0,0,3.444-.174H80.2a29.161,29.161,0,0,0,3.145.174,28.852,28.852,0,0,0,0-57.7Z" transform="translate(217.06 -245.847)" fill="#fff"/>
    <path id="Tracé_30" data-name="Tracé 30" d="M719.316,411.939a16.854,16.854,0,0,1,8.643,2.372,16.928,16.928,0,0,1,23.074-14.589,19.79,19.79,0,0,1,38.749,5.675c0,.279-.01.557-.021.833h.021a19.79,19.79,0,0,1,0,39.579,20.149,20.149,0,0,1-2.021-.1h-66.6a17.179,17.179,0,0,1-1.846.1,16.935,16.935,0,0,1,0-33.869Z" transform="translate(-425.121 -339.407)" fill="#fff"/>
    <path id="Tracé_31" data-name="Tracé 31" d="M648.836,232.526a16.478,16.478,0,0,0-8.452,2.32,16.508,16.508,0,0,0-21.915-14.49,19.36,19.36,0,0,0-18.49-13.625c-.653,0-1.3.042-1.933.1a19.351,19.351,0,0,0-17.234,13.485,16.511,16.511,0,0,0-21.94,14.481,16.561,16.561,0,1,0-8.452,30.8,16.811,16.811,0,0,0,1.8-.1h25.436a19.429,19.429,0,0,0,2.263.143q1,0,1.976-.1h36.318c.371.021.738.056,1.114.056s.743-.035,1.113-.056h26.586a16.814,16.814,0,0,0,1.8.1,16.561,16.561,0,0,0,0-33.122Z" transform="translate(205.403 -170.731)" fill="#fff"/>
    <path id="Tracé_32" data-name="Tracé 32" d="M869.575,282.048a48.113,48.113,0,0,0-24.679,6.774,48.2,48.2,0,0,0-63.988-42.308,56.528,56.528,0,0,0-53.988-39.783c-1.907,0-3.784.123-5.644.307a56.5,56.5,0,0,0-50.32,39.374,48.208,48.208,0,0,0-64.061,42.282,48.356,48.356,0,1,0-24.679,89.94,49.077,49.077,0,0,0,5.27-.292h74.269a56.735,56.735,0,0,0,6.608.418q2.921,0,5.77-.289H780.175c1.083.061,2.155.164,3.253.164s2.17-.1,3.25-.164H864.3a49.083,49.083,0,0,0,5.27.289,48.355,48.355,0,0,0,0-96.711Z" transform="translate(-230.669 -206.731)" fill="#fff"/>
    <path id="Tracé_33" data-name="Tracé 33" d="M48.567,286.562a22.221,22.221,0,0,0-11.394,3.127,22.319,22.319,0,0,0-30.42-19.234,26.1,26.1,0,0,0-25-18.608,26.09,26.09,0,0,0-26.09,26.09c0,.368.013.734.028,1.1h-.028a26.09,26.09,0,0,0-26.09,26.09,26.09,26.09,0,0,0,26.09,26.09,26.365,26.365,0,0,0,2.665-.135h87.8a22.564,22.564,0,0,0,2.434.135,22.326,22.326,0,0,0,0-44.652Z" transform="translate(698.368 -189.647)" fill="#fff"/>
  </svg>