<svg xmlns="http://www.w3.org/2000/svg" width="169.592" height="95.249" viewBox="0 0 169.592 95.249">
    <path id="Tracé_88" data-name="Tracé 88" d="M72.377,293.509A26.667,26.667,0,0,0,58.7,297.262,26.785,26.785,0,0,0,22.2,274.179a31.319,31.319,0,0,0-30-22.332,31.311,31.311,0,0,0-31.31,31.31c0,.442.016.881.033,1.319h-.033a31.311,31.311,0,0,0-31.31,31.31,31.311,31.311,0,0,0,31.31,31.31,31.647,31.647,0,0,0,3.2-.162H69.456a27.082,27.082,0,0,0,2.921.162,26.793,26.793,0,0,0,0-53.587Z" transform="translate(70.422 -251.847)" fill="#f0f0f0" />
</svg>