<svg xmlns="http://www.w3.org/2000/svg" width="106.267" height="102.007" viewBox="0 0 106.267 102.007">
  <g id="XMLID_806_" transform="translate(0 -10.262)">
    <g id="XMLID_1434_" transform="translate(24.492 12.338)">
      <rect id="XMLID_1457_" width="14.2" height="8.193" transform="translate(32.719 9.963)" fill="#d5f5fb"/>
      <path id="XMLID_1456_" d="M254.829,30.225h14.944a4.981,4.981,0,0,0,4.981-4.981h0a4.981,4.981,0,0,0-4.981-4.981H254.829a4.981,4.981,0,0,0-4.981,4.981h0A4.981,4.981,0,0,0,254.829,30.225Z" transform="translate(-222.482 -20.262)" fill="#ff7480"/>
      <circle id="XMLID_1452_" cx="39.851" cy="39.851" r="39.851" transform="translate(0 18.156)" fill="#bfdbff"/>
      <circle id="XMLID_2618_" cx="30.122" cy="30.122" r="30.122" transform="translate(9.728 27.884)" fill="#fff"/>
      <circle id="XMLID_2592_" cx="4.374" cy="4.374" r="4.374" transform="translate(35.477 53.633)" fill="#ff838e"/>
    </g>
    <g id="XMLID_386_" transform="translate(0 10.262)">
      <path id="XMLID_389_" d="M106.062,66.174A41.892,41.892,0,0,0,73.486,29.44V24.167a7.057,7.057,0,0,0-1.7-13.9H56.839a7.057,7.057,0,0,0-1.7,13.9v5.288A41.676,41.676,0,0,0,34.7,40.7a42.126,42.126,0,0,0-3.524,4c-.052,0-.1-.008-.157-.008H16.224a2.076,2.076,0,1,0,0,4.151H28.348a41.608,41.608,0,0,0-3.683,7.978H2.076a2.076,2.076,0,1,0,0,4.151H23.492a42.2,42.2,0,0,0-1.03,7.978H13.284a2.076,2.076,0,0,0,0,4.151h9.245a42.139,42.139,0,0,0,1.3,7.978H10.378a2.076,2.076,0,0,0,0,4.151H25.149A41.921,41.921,0,0,0,60.2,112.067q2.057.2,4.114.2a42.027,42.027,0,0,0,22.88-6.762,2.076,2.076,0,0,0-2.265-3.479,37.775,37.775,0,1,1,11.126-11.14,2.075,2.075,0,1,0,3.481,2.261A42.06,42.06,0,0,0,106.062,66.174ZM53.933,17.319a2.909,2.909,0,0,1,2.906-2.906H71.783a2.906,2.906,0,0,1,0,5.812H56.839A2.909,2.909,0,0,1,53.933,17.319Zm5.353,11.422V24.376H69.335v4.358A42.29,42.29,0,0,0,59.287,28.741Z" transform="translate(0 -10.262)" fill="#000a64"/>
      <path id="XMLID_391_" d="M437.846,425.5a2.076,2.076,0,1,0,1.467.608A2.087,2.087,0,0,0,437.846,425.5Z" transform="translate(-345.324 -339.315)" fill="#000a64"/>
      <path id="XMLID_394_" d="M187.07,144.609a32.2,32.2,0,1,0,32.2,32.2A32.234,32.234,0,0,0,187.07,144.609Zm0,60.245a28.047,28.047,0,1,1,28.047-28.047A28.078,28.078,0,0,1,187.07,204.854Z" transform="translate(-122.728 -116.725)" fill="#000a64"/>
      <path id="XMLID_397_" d="M281.158,220.019l-10.28,10.28a6.433,6.433,0,0,0-5.7,0l-4.6-4.6a2.076,2.076,0,0,0-2.935,2.935l4.6,4.6a6.45,6.45,0,1,0,11.569,0l9.978-9.978h0l.3-.3a2.076,2.076,0,0,0-2.935-2.935Zm-13.129,18.363a2.3,2.3,0,1,1,2.3-2.3A2.3,2.3,0,0,1,268.029,238.382Z" transform="translate(-203.687 -176.001)" fill="#000a64"/>
      <path id="XMLID_398_" d="M401.654,289.86h-1.923a2.076,2.076,0,1,0,0,4.151h1.923a2.076,2.076,0,1,0,0-4.151Z" transform="translate(-315.12 -231.828)" fill="#000a64"/>
      <path id="XMLID_399_" d="M197.08,289.616h-1.923a2.076,2.076,0,1,0,0,4.151h1.923a2.076,2.076,0,1,0,0-4.151Z" transform="translate(-153.007 -231.635)" fill="#000a64"/>
      <path id="XMLID_400_" d="M302.2,188.893a2.076,2.076,0,0,0,2.076-2.076v-1.923a2.076,2.076,0,1,0-4.151,0v1.923A2.076,2.076,0,0,0,302.2,188.893Z" transform="translate(-237.831 -147.004)" fill="#000a64"/>
      <path id="XMLID_424_" d="M301.955,387.393a2.076,2.076,0,0,0-2.076,2.076v1.923a2.076,2.076,0,0,0,4.151,0v-1.923A2.076,2.076,0,0,0,301.955,387.393Z" transform="translate(-237.638 -309.117)" fill="#000a64"/>
      <path id="XMLID_425_" d="M2.076,351.44a2.076,2.076,0,1,0,1.467,3.543,2.076,2.076,0,0,0-1.467-3.543Z" transform="translate(0 -280.627)" fill="#000a64"/>
    </g>
  </g>
</svg>
