<svg xmlns="http://www.w3.org/2000/svg" width="214.863" height="27.598" viewBox="0 0 214.863 27.598">
    <path id="Tracé_35" data-name="Tracé 35" d="M10.586.176,2.832-22.578H-.039v-4.59H12.207v4.59H9.395L13.809-9.531l4.141-13.047H15.488v-4.59h9.766v4.59h-2.52L27.188-9.531l4.277-13.047H28.75v-4.59H39.629v4.59H36.68L29.18.176H24.1l-4.277-12.4L15.781.176ZM55.117-4.59V0H40.8V-4.59h3.457V-22.578H40.8v-4.59H55.117q5,0,7.725,2.344a7.9,7.9,0,0,1,2.725,6.309,8.8,8.8,0,0,1-.957,4.111,7.352,7.352,0,0,1-2.451,2.832,9.22,9.22,0,0,1-3.418,1.348,26.738,26.738,0,0,1-4.814.361h-2.6V-4.59Zm-3.789-9.8h1.055q3.633,0,4.678-1.182a4.276,4.276,0,0,0,1.045-2.939,4.337,4.337,0,0,0-.723-2.529,2.97,2.97,0,0,0-1.66-1.289,13.541,13.541,0,0,0-3.066-.244H51.328ZM67.617,0V-4.59h3.34V-22.578h-3.34v-4.59h12.4a28.763,28.763,0,0,1,6.133.479,6.243,6.243,0,0,1,3.477,2.324,6.754,6.754,0,0,1,1.465,4.326,5.709,5.709,0,0,1-3.828,5.605q4.883,1.816,4.883,6.5a7.243,7.243,0,0,1-1.514,4.619A7.5,7.5,0,0,1,86.729-.693,25.267,25.267,0,0,1,80.02,0Zm10.41-16.445H80.02a5.262,5.262,0,0,0,3.047-.7,2.856,2.856,0,0,0,.977-2.48,2.6,2.6,0,0,0-.947-2.285,6.044,6.044,0,0,0-3.311-.664H78.027Zm0,11.855H80.02a6.733,6.733,0,0,0,3.789-.781,3.186,3.186,0,0,0,1.074-2.754,3.325,3.325,0,0,0-1.162-2.9,6.467,6.467,0,0,0-3.7-.83H78.027ZM105.684.43a10.053,10.053,0,0,1-7.061-2.646,9.364,9.364,0,0,1-2.881-7.256,9.364,9.364,0,0,1,2.881-7.256,10.053,10.053,0,0,1,7.061-2.646,10.043,10.043,0,0,1,7.07,2.646,9.38,9.38,0,0,1,2.871,7.256,9.451,9.451,0,0,1-2.842,7.227A9.953,9.953,0,0,1,105.684.43Zm-.02-4.687a3.341,3.341,0,0,0,2.725-1.289,6.383,6.383,0,0,0,1.045-4.043,6.193,6.193,0,0,0-1.016-3.779,3.258,3.258,0,0,0-2.754-1.357q-3.73,0-3.73,5.391a6.591,6.591,0,0,0,.928,3.643A3.112,3.112,0,0,0,105.664-4.258ZM128.613.43a10.053,10.053,0,0,1-7.061-2.646,9.364,9.364,0,0,1-2.881-7.256,9.364,9.364,0,0,1,2.881-7.256,10.053,10.053,0,0,1,7.061-2.646,10.043,10.043,0,0,1,7.07,2.646,9.38,9.38,0,0,1,2.871,7.256,9.451,9.451,0,0,1-2.842,7.227A9.953,9.953,0,0,1,128.613.43Zm-.02-4.687a3.341,3.341,0,0,0,2.725-1.289,6.384,6.384,0,0,0,1.045-4.043,6.193,6.193,0,0,0-1.016-3.779,3.258,3.258,0,0,0-2.754-1.357q-3.73,0-3.73,5.391a6.591,6.591,0,0,0,.928,3.643A3.112,3.112,0,0,0,128.594-4.258ZM142.4,0V-6.5h4.414a2.589,2.589,0,0,0,1.23,2.119,5.05,5.05,0,0,0,2.891.791,4.37,4.37,0,0,0,2.314-.518,1.524,1.524,0,0,0,.83-1.318,1.265,1.265,0,0,0-.762-1.152,11.161,11.161,0,0,0-2.988-.783q-4.589-.746-6.621-2.259a4.76,4.76,0,0,1-2.032-4.012,4.978,4.978,0,0,1,1.914-3.953,7.626,7.626,0,0,1,5.078-1.611,12.1,12.1,0,0,1,4.785.947v-.654h4.316v5.488h-4.316q-.586-1.973-4.141-1.973-2.617,0-2.617,1.445a.9.9,0,0,0,.537.83,12.467,12.467,0,0,0,2.744.674,35.536,35.536,0,0,1,5.234,1.211,5.742,5.742,0,0,1,2.783,2,5.433,5.433,0,0,1,1.045,3.35,5.808,5.808,0,0,1-1.982,4.541A8.157,8.157,0,0,1,151.445.43q-3.379,0-4.629-1.377V0ZM161.23-14.551v-4.355h2.4v-2.969l6.035-4.336v7.3h3.477v4.355h-3.477v8.2a2.721,2.721,0,0,0,.283,1.5q.283.382,1.3.382a5.528,5.528,0,0,0,1.895-.391v4.18a11.9,11.9,0,0,1-4.551.957q-4.961,0-4.961-4.928v-9.9ZM190.9-5.7l4.688,1.5Q192.637.43,186.367.43q-5,0-7.8-2.637a9.077,9.077,0,0,1-2.8-6.934,9.984,9.984,0,0,1,2.891-7.3,9.9,9.9,0,0,1,7.363-2.93,9.582,9.582,0,0,1,5.605,1.641,8.621,8.621,0,0,1,3.281,4.082A15.383,15.383,0,0,1,195.82-8.2H181.738a4.509,4.509,0,0,0,1.631,3.652,5.317,5.317,0,0,0,3.154,1.074A6.309,6.309,0,0,0,190.9-5.7Zm-1.152-5.859a4.8,4.8,0,0,0-1.238-2.7,3.63,3.63,0,0,0-2.805-1.113q-3.32,0-3.867,3.809Zm21.8,7.207V0h-13.3V-4.355h3.5v-10.2h-3.281v-4.355h8.809v4.8a6.7,6.7,0,0,1,2.314-3.584,6.436,6.436,0,0,1,4.268-1.514q.41,0,.977.02v5.7a11.457,11.457,0,0,0-3.73.508,4.452,4.452,0,0,0-2.383,2.227,8.359,8.359,0,0,0-.937,4.063v2.324Z" transform="translate(0.039 27.168)" fill="#000a64" />
</svg>
  