<svg xmlns="http://www.w3.org/2000/svg" width="104.813" height="101.537" viewBox="0 0 104.813 101.537">
    <g id="robot_1_" data-name="robot (1)" transform="translate(0 -8)">
      <g id="Groupe_78" data-name="Groupe 78" transform="translate(2.047 75.021)">
        <path id="Tracé_115" data-name="Tracé 115" d="M10,367.861H23.816V335.392H16.911A6.934,6.934,0,0,0,10,342.307Z" transform="translate(-10 -335.392)" fill="#bfdbff" fill-rule="evenodd"/>
      </g>
      <g id="Groupe_79" data-name="Groupe 79" transform="translate(31.241 92.725)">
        <path id="Tracé_116" data-name="Tracé 116" d="M152.608,421.872H166.72v14.766H152.608Z" transform="translate(-152.608 -421.872)" fill="#ffcd69" fill-rule="evenodd"/>
      </g>
      <g id="Groupe_80" data-name="Groupe 80" transform="translate(45.353 92.725)">
        <path id="Tracé_117" data-name="Tracé 117" d="M221.546,421.872h14.107v14.766H221.546Z" transform="translate(-221.546 -421.872)" fill="#ffe6b4" fill-rule="evenodd"/>
      </g>
      <g id="Groupe_81" data-name="Groupe 81" transform="translate(59.459 92.725)">
        <path id="Tracé_118" data-name="Tracé 118" d="M290.454,421.872h14.107v14.766H290.454Z" transform="translate(-290.454 -421.872)" fill="#ffcd69" fill-rule="evenodd"/>
      </g>
      <g id="Groupe_82" data-name="Groupe 82" transform="translate(57.429 48.608)">
        <path id="Tracé_119" data-name="Tracé 119" d="M280.533,206.368h10.05v8.942h-10.05Z" transform="translate(-280.533 -206.368)" fill="#ecf2f3" fill-rule="evenodd"/>
      </g>
      <g id="Groupe_83" data-name="Groupe 83" transform="translate(37.334 48.608)">
        <path id="Tracé_120" data-name="Tracé 120" d="M182.371,206.368h10.045v8.942H182.371Z" transform="translate(-182.371 -206.368)" fill="#ecf2f3" fill-rule="evenodd"/>
      </g>
      <g id="Groupe_84" data-name="Groupe 84" transform="translate(47.378 48.608)">
        <path id="Tracé_121" data-name="Tracé 121" d="M231.438,206.368h10.05v8.942h-10.05Z" transform="translate(-231.438 -206.368)" fill="#ecf2f3" fill-rule="evenodd"/>
      </g>
      <g id="Groupe_85" data-name="Groupe 85" transform="translate(33.539 29.192)">
        <path id="Tracé_122" data-name="Tracé 122" d="M168.488,120.828a4.654,4.654,0,1,0-4.654-4.657A4.653,4.653,0,0,0,168.488,120.828Z" transform="translate(-163.834 -111.521)" fill="#ff7480" fill-rule="evenodd"/>
      </g>
      <g id="Groupe_86" data-name="Groupe 86" transform="translate(61.966 29.192)">
        <path id="Tracé_123" data-name="Tracé 123" d="M307.354,120.828a4.654,4.654,0,1,0-4.654-4.657A4.653,4.653,0,0,0,307.354,120.828Z" transform="translate(-302.7 -111.521)" fill="#ff7480" fill-rule="evenodd"/>
      </g>
      <g id="Groupe_87" data-name="Groupe 87" transform="translate(4.93 10.047)">
        <path id="Tracé_124" data-name="Tracé 124" d="M25.678,27.321a5.459,5.459,0,1,0,0-7.722A5.458,5.458,0,0,0,25.678,27.321Z" transform="translate(-24.081 -18)" fill="#ffe6b4" fill-rule="evenodd"/>
      </g>
      <g id="Groupe_88" data-name="Groupe 88" transform="translate(88.971 10.047)">
        <path id="Tracé_125" data-name="Tracé 125" d="M436.212,27.321a5.457,5.457,0,1,0,0-7.722A5.451,5.451,0,0,0,436.212,27.321Z" transform="translate(-434.615 -18)" fill="#ffe6b4" fill-rule="evenodd"/>
      </g>
      <g id="Groupe_89" data-name="Groupe 89" transform="translate(88.943 75.021)">
        <path id="Tracé_126" data-name="Tracé 126" d="M434.48,367.861h13.735V341.222a6.942,6.942,0,0,0-6.824-5.83H434.48Z" transform="translate(-434.48 -335.392)" fill="#bfdbff" fill-rule="evenodd"/>
      </g>
      <g id="Groupe_90" data-name="Groupe 90" transform="translate(10.966 16.331)">
        <path id="Tracé_127" data-name="Tracé 127" d="M110.081,89.915h26.368A41.463,41.463,0,0,0,99.5,48.7v3.989a1.909,1.909,0,0,1-1.9,1.9H92.417a1.912,1.912,0,0,1-1.9-1.9V48.7A41.458,41.458,0,0,0,53.568,89.915H79.936V80.973h30.145v8.942Zm3.789-23.707a4.651,4.651,0,1,1-4.648-4.651A4.653,4.653,0,0,1,113.87,66.208ZM80.795,61.557a4.654,4.654,0,1,1-4.654,4.651A4.652,4.652,0,0,1,80.795,61.557Z" transform="translate(-53.568 -48.696)" fill="#bfdbff" fill-rule="evenodd"/>
      </g>
      <g id="Groupe_91" data-name="Groupe 91" transform="translate(15.864 68.779)">
        <path id="Tracé_128" data-name="Tracé 128" d="M92.869,328.847h42.325v14.766h15.377V304.9H77.492v38.711H92.869Z" transform="translate(-77.492 -304.902)" fill="#bfdbff" fill-rule="evenodd"/>
      </g>
      <g id="Groupe_92" data-name="Groupe 92" transform="translate(20.279 57.55)">
        <path id="Tracé_129" data-name="Tracé 129" d="M99.063,261.276h64.254V250.047H99.063Z" transform="translate(-99.063 -250.047)" fill="#bfdbff" fill-rule="evenodd"/>
      </g>
      <g id="Groupe_93" data-name="Groupe 93" transform="translate(47.912 11.663)">
        <path id="Tracé_130" data-name="Tracé 130" d="M235.95,36.454h5.176a1.909,1.909,0,0,0,1.9-1.9V27.8a1.9,1.9,0,0,0-1.9-1.9H235.95a1.909,1.909,0,0,0-1.9,1.9v6.753A1.912,1.912,0,0,0,235.95,36.454Z" transform="translate(-234.047 -25.892)" fill="#80b6ff" fill-rule="evenodd"/>
      </g>
      <g id="Groupe_94" data-name="Groupe 94" transform="translate(0 8)">
        <path id="Tracé_131" data-name="Tracé 131" d="M167.229,108.219a6.7,6.7,0,1,0-6.7,6.7A6.7,6.7,0,0,0,167.229,108.219Zm-9.3,0a2.6,2.6,0,1,1,2.607,2.61A2.608,2.608,0,0,1,157.927,108.219Z" transform="translate(-122.342 -82.376)" fill="#000a64"/>
        <path id="Tracé_132" data-name="Tracé 132" d="M299.4,114.922a6.7,6.7,0,1,0-6.7-6.7A6.707,6.707,0,0,0,299.4,114.922Zm0-9.307a2.607,2.607,0,1,1-2.607,2.6A2.605,2.605,0,0,1,299.4,105.614Z" transform="translate(-232.782 -82.375)" fill="#000a64"/>
        <path id="Tracé_133" data-name="Tracé 133" d="M376.5,349.029h.006a2.05,2.05,0,1,0-.006,0Z" transform="translate(-297.794 -275.96)" fill="#000a64"/>
        <path id="Tracé_134" data-name="Tracé 134" d="M95.854,72.974H90.99V68.779a2.047,2.047,0,0,0-2.047-2.047H86.58V59.6h7.266a2.047,2.047,0,0,0,2.047-2.047A43.422,43.422,0,0,0,84.68,28.392l-.114-.123,6.2-6.206a7.514,7.514,0,1,0-2.893-2.9l-6.2,6.208a43.349,43.349,0,0,0-22.73-10.84v-.966a3.955,3.955,0,0,0-3.951-3.952H49.815a3.955,3.955,0,0,0-3.951,3.952v.966a43.339,43.339,0,0,0-22.729,10.84l-6.2-6.208a7.5,7.5,0,1,0-2.9,2.893l6.2,6.21-.113.122A43.426,43.426,0,0,0,8.919,57.55,2.047,2.047,0,0,0,10.966,59.6h7.266v7.135H15.863a2.047,2.047,0,0,0-2.047,2.047v4.195H8.958A8.971,8.971,0,0,0,0,81.937V107.49a2.047,2.047,0,0,0,2.047,2.047H102.765a2.047,2.047,0,0,0,2.047-2.047V81.937a8.971,8.971,0,0,0-8.958-8.962ZM92.016,13.092a3.4,3.4,0,0,1,4.816,0l0,0a3.41,3.41,0,1,1-4.818,0ZM12.8,17.919a3.412,3.412,0,1,1,0-4.826A3.417,3.417,0,0,1,12.8,17.919Zm1.018,87.524H4.094V81.937a4.872,4.872,0,0,1,4.864-4.868h4.858ZM49.959,16.324V13.71h4.889v6.467H49.959ZM13.065,55.5a39.3,39.3,0,0,1,32.8-36.824V20.32a3.955,3.955,0,0,0,3.951,3.952h5.176a3.955,3.955,0,0,0,3.951-3.952V18.679A39.306,39.306,0,0,1,91.748,55.5H69.526V48.608a2.047,2.047,0,0,0-2.047-2.047H37.334a2.047,2.047,0,0,0-2.047,2.047V55.5Zm52.367-4.847V55.5H59.476V50.655Zm-10.051,0V55.5H49.425V50.655Zm-10.05,0V55.5h-5.95V50.655Zm-2.025,54.788H33.288V94.772H43.306Zm14.106,0H47.4V94.772H57.412Zm14.107,0H61.507V94.772H71.519Zm15.377,0H75.613V92.725a2.047,2.047,0,0,0-2.047-2.047H31.241a2.047,2.047,0,0,0-2.047,2.047v12.718H17.91V70.827h25.3a2.047,2.047,0,1,0,0-4.094H22.326V59.6h60.16v7.135H61.595a2.047,2.047,0,0,0,0,4.094H86.9Zm13.822,0H90.99V77.068h4.864a4.872,4.872,0,0,1,4.864,4.868Z" transform="translate(0 -8)" fill="#000a64"/>
        <path id="Tracé_135" data-name="Tracé 135" d="M119.541,344.935a2.047,2.047,0,1,0,0,4.094h.012a2.047,2.047,0,1,0-.012-4.094Z" transform="translate(-93.442 -275.96)" fill="#000a64"/>
        <path id="Tracé_136" data-name="Tracé 136" d="M248.032,294.9a2.047,2.047,0,0,0,0,4.094h.012a2.047,2.047,0,1,0-.012-4.094Z" transform="translate(-195.629 -236.17)" fill="#000a64"/>
      </g>
    </g>
  </svg>
  