<svg xmlns="http://www.w3.org/2000/svg" width="131.539" height="58.917" viewBox="0 0 131.539 58.917">
    <path id="Tracé_103" data-name="Tracé 103" d="M648.836,232.526a16.478,16.478,0,0,0-8.452,2.32,16.508,16.508,0,0,0-21.915-14.49,19.36,19.36,0,0,0-18.49-13.625c-.653,0-1.3.042-1.933.1a19.351,19.351,0,0,0-17.234,13.485,16.511,16.511,0,0,0-21.94,14.481,16.561,16.561,0,1,0-8.452,30.8,16.811,16.811,0,0,0,1.8-.1h25.436a19.429,19.429,0,0,0,2.263.143q1,0,1.976-.1h36.318c.371.021.738.056,1.114.056s.743-.035,1.113-.056h26.586a16.814,16.814,0,0,0,1.8.1,16.561,16.561,0,0,0,0-33.122Z" transform="translate(-533.858 -206.731)" fill="#fff" />
</svg>