<svg xmlns="http://www.w3.org/2000/svg" width="77.827" height="107.07" viewBox="0 0 77.827 107.07">
    <g id="files-and-folders" transform="translate(-69.918 0)">
        <g id="Groupe_95" data-name="Groupe 95" transform="translate(72.008 2.091)">
            <path id="Tracé_137" data-name="Tracé 137" d="M153.563,10V99.458H132.816a16.4,16.4,0,0,0-.3-7.13.226.226,0,0,1,.017.031l-5.049-18.732V61.748a5.541,5.541,0,0,0-5.542-5.542H111.521a5.541,5.541,0,0,0-5.542,5.542V73.627L101,92.148c.008-.017.019-.031.027-.048a16.367,16.367,0,0,0-.363,7.358H79.918V26.217L96.32,10Z" transform="translate(-79.917 -10)" fill="#f9f5f3" />
            <path id="Tracé_138" data-name="Tracé 138" d="M96.318,10V26.217h-16.4Z" transform="translate(-79.913 -10)" fill="#f9f5f3" />
            <path id="Tracé_139" data-name="Tracé 139" d="M210.007,267.076l.017.029-5.05-18.731v-11.88a5.542,5.542,0,0,0-5.542-5.542H189.01a5.542,5.542,0,0,0-5.542,5.542v11.88l-4.978,18.52.027-.047a16.332,16.332,0,1,0,31.491.229Z" transform="translate(-157.406 -184.747)" fill="#ffc135" />
            <circle id="Ellipse_9" data-name="Ellipse 9" cx="6.517" cy="6.517" r="6.517" transform="translate(30.306 80.037)" fill="#f9f5f3" />
        </g>
        <g id="Groupe_97" data-name="Groupe 97" transform="translate(69.918 0)">
            <g id="Groupe_96" data-name="Groupe 96">
                <path id="Tracé_140" data-name="Tracé 140" d="M145.654,54.567a2.091,2.091,0,0,0-2.091,2.091v32.8H127.238a18.282,18.282,0,0,0-.592-5.552l-4.978-18.464V53.84h0a7.642,7.642,0,0,0-7.633-7.633h-6.654V39.379h5.255a2.091,2.091,0,0,0,2.091-2.091V25.45a2.091,2.091,0,0,0-2.091-2.091h-5.518V16.17h5.518a2.091,2.091,0,0,0,2.091-2.091v-9.9h28.835V38.221a2.091,2.091,0,1,0,4.182,0V2.091A2.091,2.091,0,0,0,145.654,0H88.412a2.116,2.116,0,0,0-1.47.6l-16.4,16.217a2.12,2.12,0,0,0-.62,1.487v73.24a2.091,2.091,0,0,0,2.091,2.091H91.1a18.427,18.427,0,0,0,35.472,0h19.086a2.091,2.091,0,0,0,2.091-2.091V56.658a2.091,2.091,0,0,0-2.091-2.091ZM86.321,7.1v9.118H77.1ZM74.1,20.4H88.413A2.091,2.091,0,0,0,90.5,18.309V4.182h20.041v7.805h-5.518a2.091,2.091,0,0,0-2.091,2.091V25.45a2.091,2.091,0,0,0,2.091,2.091h5.518V35.2H105.29a2.091,2.091,0,0,0-2.091,2.091v8.93a7.642,7.642,0,0,0-7.219,7.621h0v11.6L91.072,83.7a19.1,19.1,0,0,0-.647,5.762H74.1Zm34.731,82.488A14.263,14.263,0,0,1,94.777,90.942a15.767,15.767,0,0,1,.411-6.446l4.9-18.235a2.087,2.087,0,0,0,.072-.543V53.839a3.455,3.455,0,0,1,3.451-3.451h10.422a3.455,3.455,0,0,1,3.451,3.451V65.719a2.092,2.092,0,0,0,.072.545l4.993,18.521a15.4,15.4,0,0,1,.337,6.154A14.264,14.264,0,0,1,108.832,102.888Z" transform="translate(-69.918 0)" fill="#000a64" />
                <path id="Tracé_141" data-name="Tracé 141" d="M223.442,382.729a8.609,8.609,0,1,0,8.609,8.609A8.619,8.619,0,0,0,223.442,382.729Zm0,13.035a4.426,4.426,0,1,1,4.426-4.426A4.431,4.431,0,0,1,223.442,395.764Z" transform="translate(-184.528 -302.692)" fill="#000a64" />
                <path id="Tracé_142" data-name="Tracé 142" d="M426.123,218.373a2.09,2.09,0,1,0-1.131,2.731A2.11,2.11,0,0,0,426.123,218.373Z" transform="translate(-348.456 -171.688)" fill="#000a64" />
            </g>
        </g>
    </g>
</svg>
  